# MagicaVoxel @ Ephtracy

# group
o 

# material
mtllib Monster.mtl
usemtl palette

# normals
vn -1 0 0
vn 1 0 0
vn 0 0 1
vn 0 0 -1
vn 0 -1 0
vn 0 1 0

# texcoords
vt 0.134766 0.5
vt 0.892578 0.5
vt 0.916016 0.5
vt 0.978516 0.5
vt 0.982422 0.5

# verts
v -0.5 0 0.5
v -0.5 0 -0.5
v -0.5 0.1 0.4
v -0.5 0.1 -0.4
v -0.5 0.3 0.4
v -0.5 0.3 -0.4
v -0.5 0.4 0.5
v -0.5 0.4 -0.5
v -0.4 0.1 0.4
v -0.4 0.1 -0.4
v -0.4 0.3 0.4
v -0.4 0.3 -0.4
v -0.4 0.4 0.3
v -0.4 0.4 -0.3
v -0.4 0.5 0.3
v -0.4 0.5 -0.3
v -0.3 0.5 0.3
v -0.3 0.5 -0.3
v -0.3 0.6 0.3
v -0.3 0.6 -0.3
v -0.2 0.4 -0.3
v -0.2 0.4 -0.4
v -0.2 0.6 0.3
v -0.2 0.6 -0.3
v -0.2 0.6 -0.4
v -0.2 0.7 0.5
v -0.2 0.7 0.4
v -0.2 0.8 0.3
v -0.2 0.8 0.2
v -0.2 0.8 -0.2
v -0.2 0.8 -0.3
v -0.2 0.9 0.5
v -0.2 0.9 0.4
v -0.2 0.9 0.2
v -0.2 0.9 -0.2
v -0.1 0.6 0.5
v -0.1 0.6 0.3
v -0.1 0.7 0.5
v -0.1 0.7 0.4
v -0.1 0.8 0.3
v -0.1 0.8 0.2
v -0.1 0.9 0.5
v -0.1 0.9 0.4
v -0.1 0.9 0.2
v -0.1 0.9 0.1
v -0.1 0.9 -0.1
v -0.1 1 0.5
v -0.1 1 0.4
v -0.1 1 0.1
v -0.1 1 -0.1
v 0.1 0.7 0.5
v 0.1 0.7 0.4
v 0.1 0.9 0.5
v 0.1 0.9 0.4
v -0.1 0.7 0.5
v -0.1 0.7 0.4
v -0.1 0.9 0.5
v -0.1 0.9 0.4
v 0.1 0.6 0.5
v 0.1 0.6 0.3
v 0.1 0.7 0.5
v 0.1 0.7 0.4
v 0.1 0.8 0.3
v 0.1 0.8 0.2
v 0.1 0.9 0.5
v 0.1 0.9 0.4
v 0.1 0.9 0.2
v 0.1 0.9 0.1
v 0.1 0.9 -0.1
v 0.1 1 0.5
v 0.1 1 0.4
v 0.1 1 0.1
v 0.1 1 -0.1
v 0.2 0.4 -0.3
v 0.2 0.4 -0.4
v 0.2 0.6 0.3
v 0.2 0.6 -0.3
v 0.2 0.6 -0.4
v 0.2 0.7 0.5
v 0.2 0.7 0.4
v 0.2 0.8 0.3
v 0.2 0.8 0.2
v 0.2 0.8 -0.2
v 0.2 0.8 -0.3
v 0.2 0.9 0.5
v 0.2 0.9 0.4
v 0.2 0.9 0.2
v 0.2 0.9 -0.2
v 0.3 0.5 0.3
v 0.3 0.5 -0.3
v 0.3 0.6 0.3
v 0.3 0.6 -0.3
v 0.4 0.1 0.4
v 0.4 0.1 -0.4
v 0.4 0.3 0.4
v 0.4 0.3 -0.4
v 0.4 0.4 0.3
v 0.4 0.4 -0.3
v 0.4 0.5 0.3
v 0.4 0.5 -0.3
v 0.5 0 0.5
v 0.5 0 -0.5
v 0.5 0.1 0.4
v 0.5 0.1 -0.4
v 0.5 0.3 0.4
v 0.5 0.3 -0.4
v 0.5 0.4 0.5
v 0.5 0.4 -0.5
v -0.5 0 0.5
v -0.5 0.4 0.5
v -0.4 0 0.5
v -0.4 0.4 0.5
v -0.3 0.1 0.5
v -0.3 0.3 0.5
v -0.2 0.7 0.5
v -0.2 0.9 0.5
v -0.1 0.6 0.5
v -0.1 0.7 0.5
v -0.1 0.9 0.5
v -0.1 1 0.5
v 0.1 0.6 0.5
v 0.1 0.7 0.5
v 0.1 0.9 0.5
v 0.1 1 0.5
v 0.2 0.7 0.5
v 0.2 0.9 0.5
v 0.3 0.1 0.5
v 0.3 0.3 0.5
v 0.4 0 0.5
v 0.4 0.4 0.5
v 0.5 0 0.5
v 0.5 0.4 0.5
v -0.1 0.7 0.4
v -0.1 0.9 0.4
v 0.1 0.7 0.4
v 0.1 0.9 0.4
v -0.4 0.4 0.3
v -0.4 0.5 0.3
v -0.3 0.5 0.3
v -0.3 0.6 0.3
v -0.2 0.6 0.3
v -0.2 0.8 0.3
v -0.1 0.6 0.3
v -0.1 0.8 0.3
v 0.1 0.6 0.3
v 0.1 0.8 0.3
v 0.2 0.6 0.3
v 0.2 0.8 0.3
v 0.3 0.5 0.3
v 0.3 0.6 0.3
v 0.4 0.4 0.3
v 0.4 0.5 0.3
v -0.2 0.8 0.2
v -0.2 0.9 0.2
v -0.1 0.8 0.2
v -0.1 0.9 0.2
v 0.1 0.8 0.2
v 0.1 0.9 0.2
v 0.2 0.8 0.2
v 0.2 0.9 0.2
v -0.1 0.9 0.1
v -0.1 1 0.1
v 0.1 0.9 0.1
v 0.1 1 0.1
v -0.5 0.1 -0.4
v -0.5 0.3 -0.4
v -0.4 0.1 -0.4
v -0.4 0.3 -0.4
v 0.4 0.1 -0.4
v 0.4 0.3 -0.4
v 0.5 0.1 -0.4
v 0.5 0.3 -0.4
v -0.5 0.1 0.4
v -0.5 0.3 0.4
v -0.4 0.1 0.4
v -0.4 0.3 0.4
v -0.2 0.7 0.4
v -0.2 0.9 0.4
v -0.1 0.7 0.4
v -0.1 0.9 0.4
v -0.1 1 0.4
v 0.1 0.7 0.4
v 0.1 0.9 0.4
v 0.1 1 0.4
v 0.2 0.7 0.4
v 0.2 0.9 0.4
v 0.4 0.1 0.4
v 0.4 0.3 0.4
v 0.5 0.1 0.4
v 0.5 0.3 0.4
v -0.1 0.9 -0.1
v -0.1 1 -0.1
v 0.1 0.9 -0.1
v 0.1 1 -0.1
v -0.2 0.8 -0.2
v -0.2 0.9 -0.2
v 0.2 0.8 -0.2
v 0.2 0.9 -0.2
v -0.4 0.4 -0.3
v -0.4 0.5 -0.3
v -0.3 0.5 -0.3
v -0.3 0.6 -0.3
v -0.2 0.4 -0.3
v -0.2 0.6 -0.3
v -0.2 0.8 -0.3
v 0.2 0.4 -0.3
v 0.2 0.6 -0.3
v 0.2 0.8 -0.3
v 0.3 0.5 -0.3
v 0.3 0.6 -0.3
v 0.4 0.4 -0.3
v 0.4 0.5 -0.3
v -0.2 0.4 -0.4
v -0.2 0.6 -0.4
v 0.2 0.4 -0.4
v 0.2 0.6 -0.4
v -0.5 0 -0.5
v -0.5 0.4 -0.5
v -0.4 0 -0.5
v -0.4 0.4 -0.5
v -0.3 0.2 -0.5
v -0.3 0.3 -0.5
v -0.1 0.2 -0.5
v -0.1 0.3 -0.5
v 0.1 0.2 -0.5
v 0.1 0.3 -0.5
v 0.3 0.2 -0.5
v 0.3 0.3 -0.5
v 0.4 0 -0.5
v 0.4 0.4 -0.5
v 0.5 0 -0.5
v 0.5 0.4 -0.5
v -0.5 0 0.5
v -0.4 0 0.5
v 0.4 0 0.5
v 0.5 0 0.5
v -0.5 0 -0.5
v -0.4 0 -0.5
v 0.4 0 -0.5
v 0.5 0 -0.5
v -0.5 0.3 0.4
v -0.4 0.3 0.4
v 0.4 0.3 0.4
v 0.5 0.3 0.4
v -0.5 0.3 -0.4
v -0.4 0.3 -0.4
v 0.4 0.3 -0.4
v 0.5 0.3 -0.4
v -0.1 0.6 0.5
v 0.1 0.6 0.5
v -0.1 0.6 0.3
v 0.1 0.6 0.3
v -0.2 0.7 0.5
v -0.1 0.7 0.5
v 0.1 0.7 0.5
v 0.2 0.7 0.5
v -0.2 0.7 0.4
v -0.1 0.7 0.4
v 0.1 0.7 0.4
v 0.2 0.7 0.4
v -0.1 0.9 0.5
v 0.1 0.9 0.5
v -0.1 0.9 0.4
v 0.1 0.9 0.4
v -0.5 0.1 0.4
v -0.4 0.1 0.4
v 0.4 0.1 0.4
v 0.5 0.1 0.4
v -0.5 0.1 -0.4
v -0.4 0.1 -0.4
v 0.4 0.1 -0.4
v 0.5 0.1 -0.4
v -0.5 0.4 0.5
v -0.4 0.4 0.5
v 0.4 0.4 0.5
v 0.5 0.4 0.5
v -0.4 0.4 0.3
v 0.4 0.4 0.3
v -0.4 0.4 -0.3
v -0.2 0.4 -0.3
v 0.2 0.4 -0.3
v 0.4 0.4 -0.3
v -0.2 0.4 -0.4
v 0.2 0.4 -0.4
v -0.5 0.4 -0.5
v -0.4 0.4 -0.5
v 0.4 0.4 -0.5
v 0.5 0.4 -0.5
v -0.4 0.5 0.3
v -0.3 0.5 0.3
v 0.3 0.5 0.3
v 0.4 0.5 0.3
v -0.4 0.5 -0.3
v -0.3 0.5 -0.3
v 0.3 0.5 -0.3
v 0.4 0.5 -0.3
v -0.3 0.6 0.3
v -0.2 0.6 0.3
v 0.2 0.6 0.3
v 0.3 0.6 0.3
v -0.3 0.6 -0.3
v -0.2 0.6 -0.3
v 0.2 0.6 -0.3
v 0.3 0.6 -0.3
v -0.2 0.6 -0.4
v 0.2 0.6 -0.4
v -0.1 0.7 0.5
v 0.1 0.7 0.5
v -0.1 0.7 0.4
v 0.1 0.7 0.4
v -0.2 0.8 0.3
v -0.1 0.8 0.3
v 0.1 0.8 0.3
v 0.2 0.8 0.3
v -0.2 0.8 0.2
v -0.1 0.8 0.2
v 0.1 0.8 0.2
v 0.2 0.8 0.2
v -0.2 0.8 -0.2
v 0.2 0.8 -0.2
v -0.2 0.8 -0.3
v 0.2 0.8 -0.3
v -0.2 0.9 0.5
v -0.1 0.9 0.5
v 0.1 0.9 0.5
v 0.2 0.9 0.5
v -0.2 0.9 0.4
v -0.1 0.9 0.4
v 0.1 0.9 0.4
v 0.2 0.9 0.4
v -0.2 0.9 0.2
v -0.1 0.9 0.2
v 0.1 0.9 0.2
v 0.2 0.9 0.2
v -0.1 0.9 0.1
v 0.1 0.9 0.1
v -0.1 0.9 -0.1
v 0.1 0.9 -0.1
v -0.2 0.9 -0.2
v 0.2 0.9 -0.2
v -0.1 1 0.5
v 0.1 1 0.5
v -0.1 1 0.4
v 0.1 1 0.4
v -0.1 1 0.1
v 0.1 1 0.1
v -0.1 1 -0.1
v 0.1 1 -0.1

# faces
f 3/4/1 2/4/1 1/4/1
f 4/4/1 2/4/1 3/4/1
f 5/4/1 3/4/1 1/4/1
f 6/4/1 2/4/1 4/4/1
f 7/4/1 5/4/1 1/4/1
f 7/4/1 6/4/1 5/4/1
f 8/4/1 2/4/1 6/4/1
f 8/4/1 6/4/1 7/4/1
f 11/2/1 10/2/1 9/2/1
f 12/2/1 10/2/1 11/2/1
f 15/2/1 14/2/1 13/2/1
f 16/2/1 14/2/1 15/2/1
f 19/2/1 18/2/1 17/2/1
f 20/2/1 18/2/1 19/2/1
f 24/2/1 22/2/1 21/2/1
f 25/2/1 22/2/1 24/2/1
f 28/2/1 24/2/1 23/2/1
f 29/2/1 24/2/1 28/2/1
f 30/2/1 24/2/1 29/2/1
f 31/2/1 24/2/1 30/2/1
f 32/5/1 27/5/1 26/5/1
f 33/5/1 27/5/1 32/5/1
f 34/2/1 30/2/1 29/2/1
f 35/2/1 30/2/1 34/2/1
f 38/5/1 37/5/1 36/5/1
f 39/5/1 37/5/1 38/5/1
f 40/5/1 37/5/1 39/5/1
f 43/5/1 40/5/1 39/5/1
f 43/5/1 41/5/1 40/5/1
f 44/5/1 41/5/1 43/5/1
f 47/5/1 43/5/1 42/5/1
f 48/5/1 43/5/1 47/5/1
f 49/2/1 46/2/1 45/2/1
f 50/2/1 46/2/1 49/2/1
f 53/5/1 52/5/1 51/5/1
f 54/5/1 52/5/1 53/5/1
f 55/5/2 56/5/2 57/5/2
f 57/5/2 56/5/2 58/5/2
f 59/5/2 60/5/2 61/5/2
f 61/5/2 60/5/2 62/5/2
f 62/5/2 60/5/2 63/5/2
f 62/5/2 63/5/2 66/5/2
f 63/5/2 64/5/2 66/5/2
f 66/5/2 64/5/2 67/5/2
f 65/5/2 66/5/2 70/5/2
f 70/5/2 66/5/2 71/5/2
f 68/2/2 69/2/2 72/2/2
f 72/2/2 69/2/2 73/2/2
f 74/2/2 75/2/2 77/2/2
f 77/2/2 75/2/2 78/2/2
f 76/2/2 77/2/2 81/2/2
f 81/2/2 77/2/2 82/2/2
f 82/2/2 77/2/2 83/2/2
f 83/2/2 77/2/2 84/2/2
f 79/5/2 80/5/2 85/5/2
f 85/5/2 80/5/2 86/5/2
f 82/2/2 83/2/2 87/2/2
f 87/2/2 83/2/2 88/2/2
f 89/2/2 90/2/2 91/2/2
f 91/2/2 90/2/2 92/2/2
f 93/2/2 94/2/2 95/2/2
f 95/2/2 94/2/2 96/2/2
f 97/2/2 98/2/2 99/2/2
f 99/2/2 98/2/2 100/2/2
f 101/4/2 102/4/2 103/4/2
f 103/4/2 102/4/2 104/4/2
f 101/4/2 103/4/2 105/4/2
f 104/4/2 102/4/2 106/4/2
f 101/4/2 105/4/2 107/4/2
f 105/4/2 106/4/2 107/4/2
f 106/4/2 102/4/2 108/4/2
f 107/4/2 106/4/2 108/4/2
f 111/4/3 110/4/3 109/4/3
f 112/4/3 110/4/3 111/4/3
f 113/2/3 112/2/3 111/2/3
f 114/2/3 112/2/3 113/2/3
f 118/5/3 116/5/3 115/5/3
f 119/5/3 116/5/3 118/5/3
f 121/5/3 118/5/3 117/5/3
f 122/5/3 118/5/3 121/5/3
f 123/5/3 120/5/3 119/5/3
f 124/5/3 120/5/3 123/5/3
f 125/5/3 123/5/3 122/5/3
f 126/5/3 123/5/3 125/5/3
f 127/2/3 113/2/3 111/2/3
f 127/3/3 114/3/3 113/3/3
f 128/2/3 112/2/3 114/2/3
f 128/3/3 114/3/3 127/3/3
f 129/2/3 127/2/3 111/2/3
f 129/2/3 128/2/3 127/2/3
f 130/2/3 112/2/3 128/2/3
f 130/2/3 128/2/3 129/2/3
f 131/4/3 130/4/3 129/4/3
f 132/4/3 130/4/3 131/4/3
f 135/5/3 134/5/3 133/5/3
f 136/5/3 134/5/3 135/5/3
f 139/2/3 138/2/3 137/2/3
f 141/2/3 140/2/3 139/2/3
f 143/2/3 141/2/3 139/2/3
f 143/2/3 142/2/3 141/2/3
f 144/2/3 142/2/3 143/2/3
f 145/2/3 143/2/3 139/2/3
f 147/2/3 145/2/3 139/2/3
f 147/2/3 146/2/3 145/2/3
f 148/2/3 146/2/3 147/2/3
f 149/2/3 139/2/3 137/2/3
f 149/2/3 147/2/3 139/2/3
f 150/2/3 147/2/3 149/2/3
f 151/2/3 149/2/3 137/2/3
f 152/2/3 149/2/3 151/2/3
f 155/2/3 154/2/3 153/2/3
f 156/2/3 154/2/3 155/2/3
f 159/2/3 158/2/3 157/2/3
f 160/2/3 158/2/3 159/2/3
f 163/2/3 162/2/3 161/2/3
f 164/2/3 162/2/3 163/2/3
f 167/4/3 166/4/3 165/4/3
f 168/4/3 166/4/3 167/4/3
f 171/4/3 170/4/3 169/4/3
f 172/4/3 170/4/3 171/4/3
f 173/4/4 174/4/4 175/4/4
f 175/4/4 174/4/4 176/4/4
f 177/5/4 178/5/4 179/5/4
f 179/5/4 178/5/4 180/5/4
f 180/5/4 181/5/4 183/5/4
f 183/5/4 181/5/4 184/5/4
f 182/5/4 183/5/4 185/5/4
f 185/5/4 183/5/4 186/5/4
f 187/4/4 188/4/4 189/4/4
f 189/4/4 188/4/4 190/4/4
f 191/2/4 192/2/4 193/2/4
f 193/2/4 192/2/4 194/2/4
f 195/2/4 196/2/4 197/2/4
f 197/2/4 196/2/4 198/2/4
f 199/2/4 200/2/4 201/2/4
f 199/2/4 201/2/4 203/2/4
f 201/2/4 202/2/4 203/2/4
f 203/2/4 202/2/4 204/2/4
f 204/2/4 205/2/4 207/2/4
f 207/2/4 205/2/4 208/2/4
f 206/2/4 207/2/4 209/2/4
f 209/2/4 207/2/4 210/2/4
f 206/2/4 209/2/4 211/2/4
f 211/2/4 209/2/4 212/2/4
f 213/2/4 214/2/4 215/2/4
f 215/2/4 214/2/4 216/2/4
f 217/4/4 218/4/4 219/4/4
f 219/4/4 218/4/4 220/4/4
f 219/2/4 220/2/4 221/2/4
f 221/2/4 220/2/4 222/2/4
f 219/2/4 221/2/4 223/2/4
f 221/1/4 222/1/4 223/1/4
f 222/2/4 220/2/4 224/2/4
f 223/1/4 222/1/4 224/1/4
f 219/2/4 223/2/4 225/2/4
f 223/2/4 224/2/4 225/2/4
f 224/2/4 220/2/4 226/2/4
f 225/2/4 224/2/4 226/2/4
f 219/2/4 225/2/4 227/2/4
f 225/1/4 226/1/4 227/1/4
f 226/2/4 220/2/4 228/2/4
f 227/1/4 226/1/4 228/1/4
f 219/2/4 227/2/4 229/2/4
f 227/2/4 228/2/4 229/2/4
f 228/2/4 220/2/4 230/2/4
f 229/2/4 228/2/4 230/2/4
f 229/4/4 230/4/4 231/4/4
f 231/4/4 230/4/4 232/4/4
f 237/4/5 234/4/5 233/4/5
f 238/2/5 235/2/5 234/2/5
f 238/4/5 234/4/5 237/4/5
f 239/4/5 236/4/5 235/4/5
f 239/2/5 235/2/5 238/2/5
f 240/4/5 236/4/5 239/4/5
f 245/4/5 242/4/5 241/4/5
f 246/4/5 242/4/5 245/4/5
f 247/4/5 244/4/5 243/4/5
f 248/4/5 244/4/5 247/4/5
f 251/5/5 250/5/5 249/5/5
f 252/5/5 250/5/5 251/5/5
f 257/5/5 254/5/5 253/5/5
f 258/5/5 254/5/5 257/5/5
f 259/5/5 256/5/5 255/5/5
f 260/5/5 256/5/5 259/5/5
f 263/5/5 262/5/5 261/5/5
f 264/5/5 262/5/5 263/5/5
f 265/4/6 266/4/6 269/4/6
f 269/4/6 266/4/6 270/4/6
f 267/4/6 268/4/6 271/4/6
f 271/4/6 268/4/6 272/4/6
f 273/4/6 274/4/6 277/4/6
f 274/2/6 275/2/6 277/2/6
f 275/4/6 276/4/6 278/4/6
f 277/2/6 275/2/6 278/2/6
f 273/4/6 277/4/6 279/4/6
f 278/4/6 276/4/6 282/4/6
f 279/2/6 280/2/6 283/2/6
f 281/2/6 282/2/6 284/2/6
f 273/4/6 279/4/6 285/4/6
f 279/2/6 283/2/6 286/2/6
f 285/4/6 279/4/6 286/4/6
f 283/2/6 284/2/6 286/2/6
f 284/2/6 282/2/6 287/2/6
f 286/2/6 284/2/6 287/2/6
f 282/4/6 276/4/6 287/4/6
f 287/4/6 276/4/6 288/4/6
f 289/2/6 290/2/6 293/2/6
f 293/2/6 290/2/6 294/2/6
f 291/2/6 292/2/6 295/2/6
f 295/2/6 292/2/6 296/2/6
f 297/2/6 298/2/6 301/2/6
f 301/2/6 298/2/6 302/2/6
f 299/2/6 300/2/6 303/2/6
f 303/2/6 300/2/6 304/2/6
f 302/2/6 303/2/6 305/2/6
f 305/2/6 303/2/6 306/2/6
f 307/5/6 308/5/6 309/5/6
f 309/5/6 308/5/6 310/5/6
f 311/2/6 312/2/6 315/2/6
f 315/2/6 312/2/6 316/2/6
f 313/2/6 314/2/6 317/2/6
f 317/2/6 314/2/6 318/2/6
f 319/2/6 320/2/6 321/2/6
f 321/2/6 320/2/6 322/2/6
f 323/5/6 324/5/6 327/5/6
f 327/5/6 324/5/6 328/5/6
f 325/5/6 326/5/6 329/5/6
f 329/5/6 326/5/6 330/5/6
f 328/5/6 329/5/6 332/5/6
f 332/5/6 329/5/6 333/5/6
f 331/2/6 332/2/6 335/2/6
f 333/2/6 334/2/6 335/2/6
f 332/2/6 333/2/6 335/2/6
f 335/2/6 334/2/6 336/2/6
f 331/2/6 335/2/6 337/2/6
f 336/2/6 334/2/6 338/2/6
f 331/2/6 337/2/6 339/2/6
f 337/2/6 338/2/6 339/2/6
f 338/2/6 334/2/6 340/2/6
f 339/2/6 338/2/6 340/2/6
f 341/5/6 342/5/6 343/5/6
f 343/5/6 342/5/6 344/5/6
f 345/2/6 346/2/6 347/2/6
f 347/2/6 346/2/6 348/2/6
