# MagicaVoxel @ Ephtracy

# group
o 

# material
mtllib Monster.mtl
usemtl palette

# normals
vn -1 0 0
vn 1 0 0
vn 0 0 1
vn 0 0 -1
vn 0 -1 0
vn 0 1 0

# texcoords
vt 0.134766 0.5
vt 0.892578 0.5
vt 0.916016 0.5
vt 0.978516 0.5

# verts
v -0.5 0 0.5
v -0.5 0 -0.5
v -0.5 0.1 0.4
v -0.5 0.1 -0.4
v -0.5 0.3 0.4
v -0.5 0.3 -0.4
v -0.5 0.4 0.5
v -0.5 0.4 -0.5
v -0.4 0.1 0.4
v -0.4 0.1 -0.4
v -0.4 0.3 0.4
v -0.4 0.3 -0.4
v -0.4 0.4 0.3
v -0.4 0.4 -0.3
v -0.4 0.5 0.3
v -0.4 0.5 -0.3
v -0.3 0.5 0.3
v -0.3 0.5 -0.3
v -0.3 0.6 0.3
v -0.3 0.6 -0.3
v -0.2 0.4 0.4
v -0.2 0.4 0.3
v -0.2 0.4 -0.3
v -0.2 0.4 -0.4
v -0.2 0.6 0.4
v -0.2 0.6 0.3
v -0.2 0.6 -0.3
v -0.2 0.6 -0.4
v -0.2 0.8 0.3
v -0.2 0.8 0.2
v -0.2 0.8 -0.2
v -0.2 0.8 -0.3
v -0.2 0.9 0.2
v -0.2 0.9 -0.2
v -0.1 0.9 0.1
v -0.1 0.9 -0.1
v -0.1 1 0.1
v -0.1 1 -0.1
v 0.1 0.9 0.1
v 0.1 0.9 -0.1
v 0.1 1 0.1
v 0.1 1 -0.1
v 0.2 0.4 0.4
v 0.2 0.4 0.3
v 0.2 0.4 -0.3
v 0.2 0.4 -0.4
v 0.2 0.6 0.4
v 0.2 0.6 0.3
v 0.2 0.6 -0.3
v 0.2 0.6 -0.4
v 0.2 0.8 0.3
v 0.2 0.8 0.2
v 0.2 0.8 -0.2
v 0.2 0.8 -0.3
v 0.2 0.9 0.2
v 0.2 0.9 -0.2
v 0.3 0.5 0.3
v 0.3 0.5 -0.3
v 0.3 0.6 0.3
v 0.3 0.6 -0.3
v 0.4 0.1 0.4
v 0.4 0.1 -0.4
v 0.4 0.3 0.4
v 0.4 0.3 -0.4
v 0.4 0.4 0.3
v 0.4 0.4 -0.3
v 0.4 0.5 0.3
v 0.4 0.5 -0.3
v 0.5 0 0.5
v 0.5 0 -0.5
v 0.5 0.1 0.4
v 0.5 0.1 -0.4
v 0.5 0.3 0.4
v 0.5 0.3 -0.4
v 0.5 0.4 0.5
v 0.5 0.4 -0.5
v -0.5 0 0.5
v -0.5 0.4 0.5
v -0.4 0 0.5
v -0.4 0.4 0.5
v -0.3 0.1 0.5
v -0.3 0.3 0.5
v 0.3 0.1 0.5
v 0.3 0.3 0.5
v 0.4 0 0.5
v 0.4 0.4 0.5
v 0.5 0 0.5
v 0.5 0.4 0.5
v -0.2 0.4 0.4
v -0.2 0.6 0.4
v 0.2 0.4 0.4
v 0.2 0.6 0.4
v -0.4 0.4 0.3
v -0.4 0.5 0.3
v -0.3 0.5 0.3
v -0.3 0.6 0.3
v -0.2 0.4 0.3
v -0.2 0.6 0.3
v -0.2 0.8 0.3
v 0.2 0.4 0.3
v 0.2 0.6 0.3
v 0.2 0.8 0.3
v 0.3 0.5 0.3
v 0.3 0.6 0.3
v 0.4 0.4 0.3
v 0.4 0.5 0.3
v -0.2 0.8 0.2
v -0.2 0.9 0.2
v 0.2 0.8 0.2
v 0.2 0.9 0.2
v -0.1 0.9 0.1
v -0.1 1 0.1
v 0.1 0.9 0.1
v 0.1 1 0.1
v -0.5 0.1 -0.4
v -0.5 0.3 -0.4
v -0.4 0.1 -0.4
v -0.4 0.3 -0.4
v 0.4 0.1 -0.4
v 0.4 0.3 -0.4
v 0.5 0.1 -0.4
v 0.5 0.3 -0.4
v -0.5 0.1 0.4
v -0.5 0.3 0.4
v -0.4 0.1 0.4
v -0.4 0.3 0.4
v 0.4 0.1 0.4
v 0.4 0.3 0.4
v 0.5 0.1 0.4
v 0.5 0.3 0.4
v -0.1 0.9 -0.1
v -0.1 1 -0.1
v 0.1 0.9 -0.1
v 0.1 1 -0.1
v -0.2 0.8 -0.2
v -0.2 0.9 -0.2
v 0.2 0.8 -0.2
v 0.2 0.9 -0.2
v -0.4 0.4 -0.3
v -0.4 0.5 -0.3
v -0.3 0.5 -0.3
v -0.3 0.6 -0.3
v -0.2 0.4 -0.3
v -0.2 0.6 -0.3
v -0.2 0.8 -0.3
v 0.2 0.4 -0.3
v 0.2 0.6 -0.3
v 0.2 0.8 -0.3
v 0.3 0.5 -0.3
v 0.3 0.6 -0.3
v 0.4 0.4 -0.3
v 0.4 0.5 -0.3
v -0.2 0.4 -0.4
v -0.2 0.6 -0.4
v 0.2 0.4 -0.4
v 0.2 0.6 -0.4
v -0.5 0 -0.5
v -0.5 0.4 -0.5
v -0.4 0 -0.5
v -0.4 0.4 -0.5
v -0.3 0.2 -0.5
v -0.3 0.3 -0.5
v -0.1 0.2 -0.5
v -0.1 0.3 -0.5
v 0.1 0.2 -0.5
v 0.1 0.3 -0.5
v 0.3 0.2 -0.5
v 0.3 0.3 -0.5
v 0.4 0 -0.5
v 0.4 0.4 -0.5
v 0.5 0 -0.5
v 0.5 0.4 -0.5
v -0.5 0 0.5
v -0.4 0 0.5
v 0.4 0 0.5
v 0.5 0 0.5
v -0.5 0 -0.5
v -0.4 0 -0.5
v 0.4 0 -0.5
v 0.5 0 -0.5
v -0.5 0.3 0.4
v -0.4 0.3 0.4
v 0.4 0.3 0.4
v 0.5 0.3 0.4
v -0.5 0.3 -0.4
v -0.4 0.3 -0.4
v 0.4 0.3 -0.4
v 0.5 0.3 -0.4
v -0.5 0.1 0.4
v -0.4 0.1 0.4
v 0.4 0.1 0.4
v 0.5 0.1 0.4
v -0.5 0.1 -0.4
v -0.4 0.1 -0.4
v 0.4 0.1 -0.4
v 0.5 0.1 -0.4
v -0.5 0.4 0.5
v -0.4 0.4 0.5
v 0.4 0.4 0.5
v 0.5 0.4 0.5
v -0.2 0.4 0.4
v 0.2 0.4 0.4
v -0.4 0.4 0.3
v -0.2 0.4 0.3
v 0.2 0.4 0.3
v 0.4 0.4 0.3
v -0.4 0.4 -0.3
v -0.2 0.4 -0.3
v 0.2 0.4 -0.3
v 0.4 0.4 -0.3
v -0.2 0.4 -0.4
v 0.2 0.4 -0.4
v -0.5 0.4 -0.5
v -0.4 0.4 -0.5
v 0.4 0.4 -0.5
v 0.5 0.4 -0.5
v -0.4 0.5 0.3
v -0.3 0.5 0.3
v 0.3 0.5 0.3
v 0.4 0.5 0.3
v -0.4 0.5 -0.3
v -0.3 0.5 -0.3
v 0.3 0.5 -0.3
v 0.4 0.5 -0.3
v -0.2 0.6 0.4
v 0.2 0.6 0.4
v -0.3 0.6 0.3
v -0.2 0.6 0.3
v 0.2 0.6 0.3
v 0.3 0.6 0.3
v -0.3 0.6 -0.3
v -0.2 0.6 -0.3
v 0.2 0.6 -0.3
v 0.3 0.6 -0.3
v -0.2 0.6 -0.4
v 0.2 0.6 -0.4
v -0.2 0.8 0.3
v 0.2 0.8 0.3
v -0.2 0.8 0.2
v 0.2 0.8 0.2
v -0.2 0.8 -0.2
v 0.2 0.8 -0.2
v -0.2 0.8 -0.3
v 0.2 0.8 -0.3
v -0.2 0.9 0.2
v 0.2 0.9 0.2
v -0.1 0.9 0.1
v 0.1 0.9 0.1
v -0.1 0.9 -0.1
v 0.1 0.9 -0.1
v -0.2 0.9 -0.2
v 0.2 0.9 -0.2
v -0.1 1 0.1
v 0.1 1 0.1
v -0.1 1 -0.1
v 0.1 1 -0.1

# faces
f 3/4/1 2/4/1 1/4/1
f 4/4/1 2/4/1 3/4/1
f 5/4/1 3/4/1 1/4/1
f 6/4/1 2/4/1 4/4/1
f 7/4/1 5/4/1 1/4/1
f 7/4/1 6/4/1 5/4/1
f 8/4/1 2/4/1 6/4/1
f 8/4/1 6/4/1 7/4/1
f 11/2/1 10/2/1 9/2/1
f 12/2/1 10/2/1 11/2/1
f 15/2/1 14/2/1 13/2/1
f 16/2/1 14/2/1 15/2/1
f 19/2/1 18/2/1 17/2/1
f 20/2/1 18/2/1 19/2/1
f 25/2/1 22/2/1 21/2/1
f 26/2/1 22/2/1 25/2/1
f 27/2/1 24/2/1 23/2/1
f 28/2/1 24/2/1 27/2/1
f 29/2/1 27/2/1 26/2/1
f 30/2/1 27/2/1 29/2/1
f 31/2/1 27/2/1 30/2/1
f 32/2/1 27/2/1 31/2/1
f 33/2/1 31/2/1 30/2/1
f 34/2/1 31/2/1 33/2/1
f 37/2/1 36/2/1 35/2/1
f 38/2/1 36/2/1 37/2/1
f 39/2/2 40/2/2 41/2/2
f 41/2/2 40/2/2 42/2/2
f 43/2/2 44/2/2 47/2/2
f 47/2/2 44/2/2 48/2/2
f 45/2/2 46/2/2 49/2/2
f 49/2/2 46/2/2 50/2/2
f 48/2/2 49/2/2 51/2/2
f 51/2/2 49/2/2 52/2/2
f 52/2/2 49/2/2 53/2/2
f 53/2/2 49/2/2 54/2/2
f 52/2/2 53/2/2 55/2/2
f 55/2/2 53/2/2 56/2/2
f 57/2/2 58/2/2 59/2/2
f 59/2/2 58/2/2 60/2/2
f 61/2/2 62/2/2 63/2/2
f 63/2/2 62/2/2 64/2/2
f 65/2/2 66/2/2 67/2/2
f 67/2/2 66/2/2 68/2/2
f 69/4/2 70/4/2 71/4/2
f 71/4/2 70/4/2 72/4/2
f 69/4/2 71/4/2 73/4/2
f 72/4/2 70/4/2 74/4/2
f 69/4/2 73/4/2 75/4/2
f 73/4/2 74/4/2 75/4/2
f 74/4/2 70/4/2 76/4/2
f 75/4/2 74/4/2 76/4/2
f 79/4/3 78/4/3 77/4/3
f 80/4/3 78/4/3 79/4/3
f 81/2/3 80/2/3 79/2/3
f 82/2/3 80/2/3 81/2/3
f 83/2/3 81/2/3 79/2/3
f 83/3/3 82/3/3 81/3/3
f 84/2/3 80/2/3 82/2/3
f 84/3/3 82/3/3 83/3/3
f 85/2/3 83/2/3 79/2/3
f 85/2/3 84/2/3 83/2/3
f 86/2/3 80/2/3 84/2/3
f 86/2/3 84/2/3 85/2/3
f 87/4/3 86/4/3 85/4/3
f 88/4/3 86/4/3 87/4/3
f 91/2/3 90/2/3 89/2/3
f 92/2/3 90/2/3 91/2/3
f 95/2/3 94/2/3 93/2/3
f 97/2/3 95/2/3 93/2/3
f 97/2/3 96/2/3 95/2/3
f 98/2/3 96/2/3 97/2/3
f 101/2/3 99/2/3 98/2/3
f 102/2/3 99/2/3 101/2/3
f 103/2/3 101/2/3 100/2/3
f 104/2/3 101/2/3 103/2/3
f 105/2/3 103/2/3 100/2/3
f 106/2/3 103/2/3 105/2/3
f 109/2/3 108/2/3 107/2/3
f 110/2/3 108/2/3 109/2/3
f 113/2/3 112/2/3 111/2/3
f 114/2/3 112/2/3 113/2/3
f 117/4/3 116/4/3 115/4/3
f 118/4/3 116/4/3 117/4/3
f 121/4/3 120/4/3 119/4/3
f 122/4/3 120/4/3 121/4/3
f 123/4/4 124/4/4 125/4/4
f 125/4/4 124/4/4 126/4/4
f 127/4/4 128/4/4 129/4/4
f 129/4/4 128/4/4 130/4/4
f 131/2/4 132/2/4 133/2/4
f 133/2/4 132/2/4 134/2/4
f 135/2/4 136/2/4 137/2/4
f 137/2/4 136/2/4 138/2/4
f 139/2/4 140/2/4 141/2/4
f 139/2/4 141/2/4 143/2/4
f 141/2/4 142/2/4 143/2/4
f 143/2/4 142/2/4 144/2/4
f 144/2/4 145/2/4 147/2/4
f 147/2/4 145/2/4 148/2/4
f 146/2/4 147/2/4 149/2/4
f 149/2/4 147/2/4 150/2/4
f 146/2/4 149/2/4 151/2/4
f 151/2/4 149/2/4 152/2/4
f 153/2/4 154/2/4 155/2/4
f 155/2/4 154/2/4 156/2/4
f 157/4/4 158/4/4 159/4/4
f 159/4/4 158/4/4 160/4/4
f 159/2/4 160/2/4 161/2/4
f 161/2/4 160/2/4 162/2/4
f 159/2/4 161/2/4 163/2/4
f 161/1/4 162/1/4 163/1/4
f 162/2/4 160/2/4 164/2/4
f 163/1/4 162/1/4 164/1/4
f 159/2/4 163/2/4 165/2/4
f 163/2/4 164/2/4 165/2/4
f 164/2/4 160/2/4 166/2/4
f 165/2/4 164/2/4 166/2/4
f 159/2/4 165/2/4 167/2/4
f 165/1/4 166/1/4 167/1/4
f 166/2/4 160/2/4 168/2/4
f 167/1/4 166/1/4 168/1/4
f 159/2/4 167/2/4 169/2/4
f 167/2/4 168/2/4 169/2/4
f 168/2/4 160/2/4 170/2/4
f 169/2/4 168/2/4 170/2/4
f 169/4/4 170/4/4 171/4/4
f 171/4/4 170/4/4 172/4/4
f 177/4/5 174/4/5 173/4/5
f 178/2/5 175/2/5 174/2/5
f 178/4/5 174/4/5 177/4/5
f 179/4/5 176/4/5 175/4/5
f 179/2/5 175/2/5 178/2/5
f 180/4/5 176/4/5 179/4/5
f 185/4/5 182/4/5 181/4/5
f 186/4/5 182/4/5 185/4/5
f 187/4/5 184/4/5 183/4/5
f 188/4/5 184/4/5 187/4/5
f 189/4/6 190/4/6 193/4/6
f 193/4/6 190/4/6 194/4/6
f 191/4/6 192/4/6 195/4/6
f 195/4/6 192/4/6 196/4/6
f 198/2/6 199/2/6 201/2/6
f 201/2/6 199/2/6 202/2/6
f 197/4/6 198/4/6 203/4/6
f 198/2/6 201/2/6 203/2/6
f 203/2/6 201/2/6 204/2/6
f 202/2/6 199/2/6 205/2/6
f 199/4/6 200/4/6 206/4/6
f 205/2/6 199/2/6 206/2/6
f 197/4/6 203/4/6 207/4/6
f 206/4/6 200/4/6 210/4/6
f 207/2/6 208/2/6 211/2/6
f 209/2/6 210/2/6 212/2/6
f 197/4/6 207/4/6 213/4/6
f 207/2/6 211/2/6 214/2/6
f 213/4/6 207/4/6 214/4/6
f 211/2/6 212/2/6 214/2/6
f 212/2/6 210/2/6 215/2/6
f 214/2/6 212/2/6 215/2/6
f 210/4/6 200/4/6 215/4/6
f 215/4/6 200/4/6 216/4/6
f 217/2/6 218/2/6 221/2/6
f 221/2/6 218/2/6 222/2/6
f 219/2/6 220/2/6 223/2/6
f 223/2/6 220/2/6 224/2/6
f 225/2/6 226/2/6 228/2/6
f 228/2/6 226/2/6 229/2/6
f 227/2/6 228/2/6 231/2/6
f 231/2/6 228/2/6 232/2/6
f 229/2/6 230/2/6 233/2/6
f 233/2/6 230/2/6 234/2/6
f 232/2/6 233/2/6 235/2/6
f 235/2/6 233/2/6 236/2/6
f 237/2/6 238/2/6 239/2/6
f 239/2/6 238/2/6 240/2/6
f 241/2/6 242/2/6 243/2/6
f 243/2/6 242/2/6 244/2/6
f 245/2/6 246/2/6 247/2/6
f 247/2/6 246/2/6 248/2/6
f 245/2/6 247/2/6 249/2/6
f 248/2/6 246/2/6 250/2/6
f 245/2/6 249/2/6 251/2/6
f 249/2/6 250/2/6 251/2/6
f 250/2/6 246/2/6 252/2/6
f 251/2/6 250/2/6 252/2/6
f 253/2/6 254/2/6 255/2/6
f 255/2/6 254/2/6 256/2/6
